HIERARCHY
ROOT root
{
	OFFSET	0	13.1	24.9
	CHANNELS 6  Xposition Yposition Zposition Xrotation Yrotation Zrotation
	JOINT spine_1
	{
		OFFSET	0	9.99999	0
		CHANNELS 3  Xrotation Yrotation Zrotation
		JOINT spine_2
		{
			OFFSET	0	112	-10
			CHANNELS 3  Xrotation Yrotation Zrotation
			JOINT spine_3
			{
				OFFSET	0	206.5	19.3
				CHANNELS 3  Xrotation Yrotation Zrotation
				JOINT spine_4
				{
					OFFSET	0	110.4	14.6
					CHANNELS 3  Xrotation Yrotation Zrotation
					JOINT neck_1
					{
						OFFSET	0	71.8	-50.3
						CHANNELS 3  Xrotation Yrotation Zrotation
						JOINT neck_2
						{
							OFFSET	0	86.2	-25.8
							CHANNELS 3  Xrotation Yrotation Zrotation
							JOINT head_ee
							{
								OFFSET	0	179.8	-8.7
								CHANNELS 3  Xrotation Yrotation Zrotation
								End Site
								{
									OFFSET	1	0	0
								}
							}
						}
					}
					JOINT left_clavicle
					{
						OFFSET	-43.2	22.4	-70.8
						CHANNELS 3  Xrotation Yrotation Zrotation
						JOINT left_shoulder
						{
							OFFSET	-93.9	-5.79999	48.7
							CHANNELS 3  Xrotation Yrotation Zrotation
							JOINT left_elbow
							{
								OFFSET	-291.4	-30.8	15.2
								CHANNELS 3  Xrotation Yrotation Zrotation
								JOINT left_lowarm_twist
								{
									OFFSET	-110.7	-3.89999	13.6
									CHANNELS 3  Xrotation Yrotation Zrotation
									JOINT left_hand
									{
										OFFSET	-110.7	-3.89999	13.6
										CHANNELS 3  Xrotation Yrotation Zrotation
										JOINT left_ee
										{
											OFFSET	-80.8	-5.10001	12.1
											CHANNELS 3  Xrotation Yrotation Zrotation
											End Site
											{
												OFFSET	1	0	0
											}
										}
									}
								}
							}
						}
					}
					JOINT right_clavicle
					{
						OFFSET	43.2	22.4	-70.8
						CHANNELS 3  Xrotation Yrotation Zrotation
						JOINT right_shoulder
						{
							OFFSET	93.9	-5.79999	48.7
							CHANNELS 3  Xrotation Yrotation Zrotation
							JOINT right_elbow
							{
								OFFSET	291.4	-30.8	15.2
								CHANNELS 3  Xrotation Yrotation Zrotation
								JOINT right_lowarm_twist
								{
									OFFSET	110.7	-3.89999	13.6
									CHANNELS 3  Xrotation Yrotation Zrotation
									JOINT right_hand
									{
										OFFSET	110.7	-3.89999	13.6
										CHANNELS 3  Xrotation Yrotation Zrotation
										JOINT right_ee
										{
											OFFSET	80.8	-5.10001	12.1
											CHANNELS 3  Xrotation Yrotation Zrotation
											End Site
											{
												OFFSET	1	0	0
											}
										}
									}
								}
							}
						}
					}
				}
			}
		}
	}
	JOINT left_hip
	{
		OFFSET	-82.8	-127.5	0.300001
		CHANNELS 3  Xrotation Yrotation Zrotation
		JOINT left_knee
		{
			OFFSET	-28.2	-396.7	2.2
			CHANNELS 3  Xrotation Yrotation Zrotation
			JOINT left_ankle
			{
				OFFSET	-11.7	-411.3	35.4
				CHANNELS 3  Xrotation Yrotation Zrotation
				JOINT left_toes
				{
					OFFSET	0	-60	-88.6
					CHANNELS 3  Xrotation Yrotation Zrotation
					JOINT left_foot_ee
					{
						OFFSET	-22.5	-16.5	-42.2
						CHANNELS 3  Xrotation Yrotation Zrotation
						End Site
						{
							OFFSET	1	0	0
						}
					}
				}
			}
		}
	}
	JOINT right_hip
	{
		OFFSET	82.8	-127.5	0.300001
		CHANNELS 3  Xrotation Yrotation Zrotation
		JOINT right_knee
		{
			OFFSET	28.2	-396.7	2.2
			CHANNELS 3  Xrotation Yrotation Zrotation
			JOINT right_ankle
			{
				OFFSET	11.7	-411.3	35.4
				CHANNELS 3  Xrotation Yrotation Zrotation
				JOINT right_toes
				{
					OFFSET	0	-60	-88.6
					CHANNELS 3  Xrotation Yrotation Zrotation
					JOINT right_foot_ee
					{
						OFFSET	22.5	-16.5	-42.2
						CHANNELS 3  Xrotation Yrotation Zrotation
						End Site
						{
							OFFSET	1	0	0
						}
					}
				}
			}
		}
	}
}
MOTION
Frames: 13
Frame Time: 0.02
391.555 721.904 -1204.45 -153.424487531 -41.4692431614 -170.790082807 7.661 0.899035 4.7077 7.67312 0.597998 4.75522 7.70287 0.230163 4.78707 7.67225 0.982465 4.69104 0.303517 5.2824 -6.95226 0.688616 15.0903 -7.02557 -0.0 0.0 -0.0 0.0937231 22.4139 2.7306 -29.3237 -36.5565 57.6868 0.890775 -23.8098 0.187799 -36.862 -2.62379 3.8263 0.823752 1.21514 6.00539 -0.0 0.0 -0.0 7.62975 10.1973 -14.7168 -1.35293 -23.4493 -79.947 0.308959 8.70174 -0.0235067 -44.6171 3.45503 -4.37219 -3.52171 -6.14355 20.9387 0.0 0.0 0.0 22.5432 -3.64146 10.8629 1.2889 -0.0552175 -0.190073 19.2602 27.7249 -2.81704 11.1236 -0.0 -0.0 -0.0 0.0 -0.0 35.0284 4.02195 17.1932 -16.3186 -0.321306 -2.4752 7.21296 12.5245 1.10523 2.79668 -0.0 -0.0 0.0 0.0 0.0 
405.216988133 716.12 -1198.21869153 -154.973983674 -43.8712110791 -171.904289882 7.3999 0.930238 4.55379 7.4112 0.638898 4.60361 7.44477 0.26179 4.64028 7.4161 0.990589 4.54107 -0.715969 8.75207 -4.00767 -0.382544 18.9067 -3.32005 -0.0 0.0 -0.0 -1.67442 23.4204 0.41686 -27.6552 -39.4967 62.1791 0.7395 -20.1191 0.131188 -36.0765 -2.54389 3.76487 1.36859 0.802316 9.50354 -0.0 0.0 -0.0 9.01061 10.4829 -17.6721 -1.46049 -18.7361 -80.2765 0.637069 17.515 -0.098141 -48.5479 3.90259 -4.60481 -1.83099 0.956826 12.7668 0.0 0.0 0.0 22.3338 -0.573191 11.1822 -6.4827 0.212116 0.971763 27.3061 27.0517 -3.83813 11.7247 -0.0 -0.0 -0.0 0.0 -0.0 34.2145 2.84 17.4447 -17.6363 -0.316286 -2.6773 11.4983 7.73704 1.68717 2.81176 -0.0 -0.0 0.0 0.0 0.0 
405.182669286 716.12 -1198.14399058 -155.100617058 -43.5868386498 -172.087484386 7.3999 0.930238 4.55379 7.4112 0.638898 4.60361 7.44477 0.26179 4.64028 7.4161 0.990589 4.54107 -0.715969 8.75207 -4.00767 -0.382544 18.9067 -3.32005 -0.0 0.0 -0.0 -1.67442 23.4204 0.41686 -27.6552 -39.4967 62.1791 0.7395 -20.1191 0.131188 -36.0765 -2.54389 3.76487 1.36859 0.802316 9.50354 -0.0 0.0 -0.0 9.01061 10.4829 -17.6721 -1.46049 -18.7361 -80.2765 0.637069 17.515 -0.098141 -48.5479 3.90259 -4.60481 -1.83099 0.956826 12.7668 0.0 0.0 0.0 22.3338 -0.573191 11.1822 -6.4827 0.212116 0.971763 27.3061 27.0517 -3.83813 11.7247 -0.0 -0.0 -0.0 0.0 -0.0 34.2145 2.84 17.4447 -17.6363 -0.316286 -2.6773 11.4983 7.73704 1.68717 2.81176 -0.0 -0.0 0.0 0.0 0.0 
405.071960024 716.12 -1197.91005224 -155.487397417 -42.6896750202 -172.653130488 7.3999 0.930238 4.55379 7.4112 0.638898 4.60361 7.44477 0.26179 4.64028 7.4161 0.990589 4.54107 -0.715969 8.75207 -4.00767 -0.382544 18.9067 -3.32005 -0.0 0.0 -0.0 -1.67442 23.4204 0.41686 -27.6552 -39.4967 62.1791 0.7395 -20.1191 0.131188 -36.0765 -2.54389 3.76487 1.36859 0.802316 9.50354 -0.0 0.0 -0.0 9.01061 10.4829 -17.6721 -1.46049 -18.7361 -80.2765 0.637069 17.515 -0.098141 -48.5479 3.90259 -4.60481 -1.83099 0.956826 12.7668 0.0 0.0 0.0 22.3338 -0.573191 11.1822 -6.4827 0.212116 0.971763 27.3061 27.0517 -3.83813 11.7247 -0.0 -0.0 -0.0 0.0 -0.0 34.2145 2.84 17.4447 -17.6363 -0.316286 -2.6773 11.4983 7.73704 1.68717 2.81176 -0.0 -0.0 0.0 0.0 0.0 
405.025420609 716.12 -1197.81472355 -155.640862394 -42.3211571665 -172.880262621 7.3999 0.930238 4.55379 7.4112 0.638898 4.60361 7.44477 0.26179 4.64028 7.4161 0.990589 4.54107 -0.715969 8.75207 -4.00767 -0.382544 18.9067 -3.32005 -0.0 0.0 -0.0 -1.67442 23.4204 0.41686 -27.6552 -39.4967 62.1791 0.7395 -20.1191 0.131188 -36.0765 -2.54389 3.76487 1.36859 0.802316 9.50354 -0.0 0.0 -0.0 9.01061 10.4829 -17.6721 -1.46049 -18.7361 -80.2765 0.637069 17.515 -0.098141 -48.5479 3.90259 -4.60481 -1.83099 0.956826 12.7668 0.0 0.0 0.0 22.3338 -0.573191 11.1822 -6.4827 0.212116 0.971763 27.3061 27.0517 -3.83813 11.7247 -0.0 -0.0 -0.0 0.0 -0.0 34.2145 2.84 17.4447 -17.6363 -0.316286 -2.6773 11.4983 7.73704 1.68717 2.81176 -0.0 -0.0 0.0 0.0 0.0 
405.124620456 716.12 -1198.02002911 -155.307392851 -43.1126999797 -172.388706166 7.3999 0.930238 4.55379 7.4112 0.638898 4.60361 7.44477 0.26179 4.64028 7.4161 0.990589 4.54107 -0.715969 8.75207 -4.00767 -0.382544 18.9067 -3.32005 -0.0 0.0 -0.0 -1.67442 23.4204 0.41686 -27.6552 -39.4967 62.1791 0.7395 -20.1191 0.131188 -36.0765 -2.54389 3.76487 1.36859 0.802316 9.50354 -0.0 0.0 -0.0 9.01061 10.4829 -17.6721 -1.46049 -18.7361 -80.2765 0.637069 17.515 -0.098141 -48.5479 3.90259 -4.60481 -1.83099 0.956826 12.7668 0.0 0.0 0.0 22.3338 -0.573191 11.1822 -6.4827 0.212116 0.971763 27.3061 27.0517 -3.83813 11.7247 -0.0 -0.0 -0.0 0.0 -0.0 34.2145 2.84 17.4447 -17.6363 -0.316286 -2.6773 11.4983 7.73704 1.68717 2.81176 -0.0 -0.0 0.0 0.0 0.0 
405.138196472 716.12 -1198.04875804 -155.259840697 -43.2228358668 -172.319199423 7.3999 0.930238 4.55379 7.4112 0.638898 4.60361 7.44477 0.26179 4.64028 7.4161 0.990589 4.54107 -0.715969 8.75207 -4.00767 -0.382544 18.9067 -3.32005 -0.0 0.0 -0.0 -1.67442 23.4204 0.41686 -27.6552 -39.4967 62.1791 0.7395 -20.1191 0.131188 -36.0765 -2.54389 3.76487 1.36859 0.802316 9.50354 -0.0 0.0 -0.0 9.01061 10.4829 -17.6721 -1.46049 -18.7361 -80.2765 0.637069 17.515 -0.098141 -48.5479 3.90259 -4.60481 -1.83099 0.956826 12.7668 0.0 0.0 0.0 22.3338 -0.573191 11.1822 -6.4827 0.212116 0.971763 27.3061 27.0517 -3.83813 11.7247 -0.0 -0.0 -0.0 0.0 -0.0 34.2145 2.84 17.4447 -17.6363 -0.316286 -2.6773 11.4983 7.73704 1.68717 2.81176 -0.0 -0.0 0.0 0.0 0.0 
405.24589803 716.12 -1198.2824692 -154.864639746 -44.1132068065 -171.746861349 7.3999 0.930238 4.55379 7.4112 0.638898 4.60361 7.44477 0.26179 4.64028 7.4161 0.990589 4.54107 -0.715969 8.75207 -4.00767 -0.382544 18.9067 -3.32005 -0.0 0.0 -0.0 -1.67442 23.4204 0.41686 -27.6552 -39.4967 62.1791 0.7395 -20.1191 0.131188 -36.0765 -2.54389 3.76487 1.36859 0.802316 9.50354 -0.0 0.0 -0.0 9.01061 10.4829 -17.6721 -1.46049 -18.7361 -80.2765 0.637069 17.515 -0.098141 -48.5479 3.90259 -4.60481 -1.83099 0.956826 12.7668 0.0 0.0 0.0 22.3338 -0.573191 11.1822 -6.4827 0.212116 0.971763 27.3061 27.0517 -3.83813 11.7247 -0.0 -0.0 -0.0 0.0 -0.0 34.2145 2.84 17.4447 -17.6363 -0.316286 -2.6773 11.4983 7.73704 1.68717 2.81176 -0.0 -0.0 0.0 0.0 0.0 
419.308808766 712.733 -1205.38730198 -153.408831713 -48.0336105045 -169.196024351 7.41173 0.853337 4.21876 7.42144 0.583408 4.2644 7.44959 0.234285 4.29768 7.42498 0.909478 4.20704 -1.24312 10.2823 -2.85629 -0.916824 20.7713 -1.82674 -0.0 0.0 -0.0 -2.51435 23.9528 -0.637969 -24.3584 -41.2197 64.8286 0.754054 -20.4825 0.136238 -36.1189 -2.54818 3.76821 1.64538 0.504222 11.2622 -0.0 0.0 -0.0 9.30468 9.64464 -18.3259 -2.1834 -17.6869 -78.4036 0.713959 19.4774 -0.122537 -49.68 4.03433 -4.66606 -1.26729 3.42996 10.0257 0.0 0.0 0.0 22.7003 -0.03585 11.5523 -8.62207 0.257817 1.29686 28.7178 26.1012 -3.98428 11.7603 -0.0 -0.0 -0.0 0.0 -0.0 33.6928 2.31395 18.7434 -18.8777 -0.307305 -2.86756 13.2325 6.68318 1.91861 3.15967 -0.0 -0.0 0.0 0.0 0.0 
419.311034004 712.733 -1205.31891447 -153.47885654 -47.9073294951 -169.290295744 7.41173 0.853337 4.21876 7.42144 0.583408 4.2644 7.44959 0.234285 4.29768 7.42498 0.909478 4.20704 -1.24312 10.2823 -2.85629 -0.916824 20.7713 -1.82674 -0.0 0.0 -0.0 -2.51435 23.9528 -0.637969 -24.3584 -41.2197 64.8286 0.754054 -20.4825 0.136238 -36.1189 -2.54818 3.76821 1.64538 0.504222 11.2622 -0.0 0.0 -0.0 9.30468 9.64464 -18.3259 -2.1834 -17.6869 -78.4036 0.713959 19.4774 -0.122537 -49.68 4.03433 -4.66606 -1.26729 3.42996 10.0257 0.0 0.0 0.0 22.7003 -0.03585 11.5523 -8.62207 0.257817 1.29686 28.7178 26.1012 -3.98428 11.7603 -0.0 -0.0 -0.0 0.0 -0.0 33.6928 2.31395 18.7434 -18.8777 -0.307305 -2.86756 13.2325 6.68318 1.91861 3.15967 -0.0 -0.0 0.0 0.0 0.0 
419.301932939 712.733 -1205.57256334 -153.216663146 -48.3753684651 -168.938264064 7.41173 0.853337 4.21876 7.42144 0.583408 4.2644 7.44959 0.234285 4.29768 7.42498 0.909478 4.20704 -1.24312 10.2823 -2.85629 -0.916824 20.7713 -1.82674 -0.0 0.0 -0.0 -2.51435 23.9528 -0.637969 -24.3584 -41.2197 64.8286 0.754054 -20.4825 0.136238 -36.1189 -2.54818 3.76821 1.64538 0.504222 11.2622 -0.0 0.0 -0.0 9.30468 9.64464 -18.3259 -2.1834 -17.6869 -78.4036 0.713959 19.4774 -0.122537 -49.68 4.03433 -4.66606 -1.26729 3.42996 10.0257 0.0 0.0 0.0 22.7003 -0.03585 11.5523 -8.62207 0.257817 1.29686 28.7178 26.1012 -3.98428 11.7603 -0.0 -0.0 -0.0 0.0 -0.0 33.6928 2.31395 18.7434 -18.8777 -0.307305 -2.86756 13.2325 6.68318 1.91861 3.15967 -0.0 -0.0 0.0 0.0 0.0 
419.313113035 712.733 -1205.24974791 -153.549185799 -47.7795417591 -169.385166804 7.41173 0.853337 4.21876 7.42144 0.583408 4.2644 7.44959 0.234285 4.29768 7.42498 0.909478 4.20704 -1.24312 10.2823 -2.85629 -0.916824 20.7713 -1.82674 -0.0 0.0 -0.0 -2.51435 23.9528 -0.637969 -24.3584 -41.2197 64.8286 0.754054 -20.4825 0.136238 -36.1189 -2.54818 3.76821 1.64538 0.504222 11.2622 -0.0 0.0 -0.0 9.30468 9.64464 -18.3259 -2.1834 -17.6869 -78.4036 0.713959 19.4774 -0.122537 -49.68 4.03433 -4.66606 -1.26729 3.42996 10.0257 0.0 0.0 0.0 22.7003 -0.03585 11.5523 -8.62207 0.257817 1.29686 28.7178 26.1012 -3.98428 11.7603 -0.0 -0.0 -0.0 0.0 -0.0 33.6928 2.31395 18.7434 -18.8777 -0.307305 -2.86756 13.2325 6.68318 1.91861 3.15967 -0.0 -0.0 0.0 0.0 0.0 
425.703031035 710.225 -1211.12613641 -153.040054913 -48.1668170275 -168.808812826 7.42404 0.794512 4.13775 7.43341 0.529842 4.17982 7.45735 0.188202 4.20901 7.43365 0.850004 4.12672 -1.10903 10.4382 -3.385 -0.738746 21.4613 -2.40247 -0.0 0.0 -0.0 -2.46636 23.4454 -0.665286 -23.384 -41.7761 65.4351 0.765333 -20.7628 0.14021 -36.1128 -2.54756 3.76773 1.71248 0.440679 11.694 -0.0 0.0 -0.0 9.10104 10.4459 -17.8688 -2.70091 -17.2273 -77.8682 0.729257 19.8624 -0.127687 -50.035 4.07589 -4.68473 -1.08865 4.25222 9.16984 0.0 0.0 0.0 23.3323 0.0144817 12.2593 -8.9885 0.264425 1.3527 28.7665 26.4355 -3.99848 11.8123 -0.0 -0.0 -0.0 0.0 -0.0 33.8385 2.64465 19.3368 -19.3631 -0.302673 -2.94189 13.8496 6.56011 2.00182 3.28693 -0.0 -0.0 0.0 0.0 0.0 
